<svg width="304" height="81" viewBox="0 0 304 81" fill="none" xmlns="http://www.w3.org/2000/svg">
<g clip-path="url(#clip0_7_5143)">
<path d="M68.4395 11.8111C69.6288 13.003 70.4638 14.4914 70.9441 16.2764C74.6438 30.0722 77.3 40.0356 78.9126 46.1671C79.4558 48.23 79.31 50.2556 78.4752 52.244C77.9918 53.3958 76.7082 54.9816 74.6238 57.0016C73.1629 58.4142 66.4094 65.1601 54.364 77.2396C52.9401 78.6665 51.136 79.5189 48.9515 79.7967C47.6592 79.9629 45.6849 79.6721 43.0289 78.9243C40.1268 78.1107 33.1505 76.2196 22.0999 73.2512C22.0646 73.2412 22.0323 73.2223 22.0063 73.1962C21.9804 73.17 21.9617 73.1378 21.9521 73.1025C21.9424 73.0672 21.9424 73.0302 21.9517 72.9952C21.9611 72.9603 21.9796 72.9285 22.0056 72.9032C36.8588 57.97 45.309 49.4892 47.3562 47.4607C47.9281 46.8963 48.5155 46.9105 49.1188 47.5036C51.8636 50.2083 53.7965 52.1482 54.9172 53.3227C55.1048 53.5189 55.208 53.7812 55.205 54.0536C55.2017 54.3258 55.0923 54.5865 54.9 54.7798L42.1282 67.5827C42.1068 67.604 42.0914 67.6305 42.0836 67.6598C42.0758 67.6891 42.0758 67.7198 42.0836 67.7491C42.0914 67.7782 42.1068 67.8049 42.1282 67.8261C42.1496 67.8476 42.1763 67.8629 42.2053 67.8705C43.5721 68.2258 44.9574 68.5754 46.3612 68.9192C47.2246 69.1312 48.0467 68.8405 48.8273 68.0467C55.7264 61.0616 61.7091 55.0605 66.7756 50.0436C66.9499 49.8689 67.323 49.4634 67.8948 48.8274C67.9828 48.728 68.0525 48.6145 68.1008 48.4921C68.3551 47.836 68.3751 47.1254 68.1607 46.3605C65.9734 38.5558 63.6848 30.1051 61.2945 21.0082C61.143 20.4323 60.9084 19.9867 60.5911 19.6716C60.2767 19.3536 59.832 19.1187 59.2573 18.9667C50.1824 16.5686 41.7508 14.2722 33.9625 12.0775C33.1992 11.8626 32.4901 11.8827 31.8353 12.1377C31.7132 12.186 31.6 12.2559 31.5007 12.344C30.8661 12.9141 30.4615 13.2866 30.2871 13.4614C25.2778 18.5384 19.2866 24.5323 12.3131 31.4431C11.5211 32.2252 11.2309 33.0491 11.4424 33.9143C11.7855 35.3211 12.1344 36.7092 12.4889 38.0787C12.4966 38.108 12.5119 38.1347 12.5332 38.1562C12.5545 38.1774 12.5811 38.1929 12.6102 38.2007C12.6394 38.2087 12.6701 38.2087 12.6992 38.2007C12.7284 38.1929 12.7549 38.1776 12.7762 38.1562L25.5567 25.3618C25.7495 25.1691 26.0095 25.0594 26.2813 25.0563C26.5529 25.0531 26.8148 25.1565 27.0105 25.3445C28.1828 26.4678 30.1169 28.406 32.8131 31.1594C33.4049 31.764 33.4192 32.3527 32.8561 32.9258C30.8318 34.9743 22.3657 43.438 7.45823 58.3167C7.43295 58.3427 7.40128 58.3612 7.36638 58.3707C7.33148 58.38 7.29459 58.38 7.25941 58.3703C7.22421 58.3607 7.19197 58.342 7.1659 58.316C7.13982 58.29 7.12083 58.2576 7.11085 58.2221C4.15163 47.1483 2.26745 40.1574 1.45832 37.2492C0.712079 34.5876 0.421877 32.6092 0.587707 31.3142C0.865045 29.1252 1.71707 27.3172 3.14378 25.8903C15.2008 13.8253 21.9355 7.06064 23.3479 5.59655C25.3636 3.50786 26.9461 2.2214 28.0955 1.73719C30.0797 0.900569 32.1011 0.75588 34.1597 1.30312C40.2783 2.92193 50.2196 5.58795 63.9836 9.30119C65.7648 9.78253 67.25 10.6192 68.4395 11.8111Z" fill="#FCC80D"/>
<path d="M55.8048 24.4503C56.2308 24.8772 56.3394 25.4947 56.1306 26.3027C55.0585 30.3912 53.8148 35.0587 52.3995 40.3047C52.0907 41.4565 50.9542 41.7659 49.9334 41.2116C49.8993 41.1943 49.8674 41.1712 49.8391 41.1427L48.4796 39.6901C48.4506 39.6592 48.4157 39.6343 48.3771 39.617C48.3383 39.5997 48.2965 39.5905 48.2541 39.5897C48.2118 39.5888 48.1697 39.5967 48.1303 39.6123C48.091 39.6281 48.0552 39.6516 48.0251 39.6816L11.8025 75.9801C11.6685 76.1141 11.5015 76.2101 11.3184 76.2583C11.1354 76.3067 10.9428 76.3056 10.7604 76.2552C9.12492 75.8025 7.72537 74.993 6.5617 73.8268C5.39517 72.6608 4.58603 71.2583 4.13427 69.6194C4.08396 69.4367 4.08285 69.2436 4.13106 69.0603C4.17927 68.8768 4.27509 68.7094 4.40875 68.575L40.6098 32.255C40.6397 32.2248 40.6631 32.189 40.6789 32.1496C40.6945 32.1101 40.7023 32.0679 40.7014 32.0254C40.7007 31.983 40.6914 31.9412 40.6742 31.9023C40.6569 31.8636 40.6321 31.8285 40.6012 31.7996L39.1517 30.437C39.1232 30.4086 39.1002 30.3768 39.083 30.3425C38.5298 29.3197 38.8386 28.1808 39.988 27.8714C45.2203 26.4503 49.8777 25.2025 53.9606 24.1281C54.764 23.9159 55.3787 24.0234 55.8048 24.4503Z" fill="#FCC80D"/>
<path d="M109.824 59.5006V21.8643H118.261V59.5006H109.824ZM113.526 59.5006V51.5915H138.128V59.5006H113.526ZM113.526 44.1188V36.6461H135.57V44.1188H113.526ZM113.526 29.7733V21.8643H137.911V29.7733H113.526ZM143.472 59.5006V21.8643H151.908V59.5006H143.472ZM147.173 59.5006V51.5915H168.129V59.5006H147.173ZM179.076 59.5006L167.047 21.8643H176.028L187.568 59.5006H179.076ZM183.703 59.5006L194.916 21.8643H203.789L191.759 59.5006H183.703ZM207.152 59.5006V21.8643H215.589V59.5006H207.152ZM230.955 59.5006V21.8643H239.338V59.5006H230.955ZM220.069 29.7733V21.8643H250.224V29.7733H220.069ZM254.673 59.5006V21.8643H263.109V59.5006H254.673ZM291.267 59.5006L267.045 21.8643H276.842L301.064 59.5006H291.267ZM266.5 59.5006L279.782 38.9915L283.156 34.6279L290.994 21.8643H300.52L287.783 41.5006L284.408 45.8097L276.026 59.5006H266.5Z" fill="#FAFAFA"/>
</g>
<defs>
<clipPath id="clip0_7_5143">
<rect width="303" height="80" fill="white" transform="translate(0.54248 0.410156)"/>
</clipPath>
</defs>
</svg>
